<mxfile host="app.diagrams.net" modified="2024-02-12T15:14:37.845Z" agent="Mozilla/5.0 (Windows NT 10.0; Win64; x64) AppleWebKit/537.36 (KHTML, like Gecko) Chrome/121.0.0.0 Safari/537.36" etag="EuCBGiFjfRen8zddw-4N" version="23.1.2" type="device">
  <diagram name="Page-1" id="kPccnMWrvQxa6MzRlEUF">
    <mxGraphModel dx="1195" dy="554" grid="1" gridSize="10" guides="1" tooltips="1" connect="1" arrows="1" fold="1" page="1" pageScale="1" pageWidth="850" pageHeight="1100" math="0" shadow="0">
      <root>
        <mxCell id="0" />
        <mxCell id="1" parent="0" />
        <mxCell id="JLzmBLDIlspdBm6jVhew-5" value="" style="edgeStyle=orthogonalEdgeStyle;rounded=0;orthogonalLoop=1;jettySize=auto;html=1;" edge="1" parent="1" source="JLzmBLDIlspdBm6jVhew-1" target="JLzmBLDIlspdBm6jVhew-2">
          <mxGeometry relative="1" as="geometry" />
        </mxCell>
        <mxCell id="JLzmBLDIlspdBm6jVhew-1" value="Start" style="ellipse;whiteSpace=wrap;html=1;" vertex="1" parent="1">
          <mxGeometry x="360" y="200" width="120" height="80" as="geometry" />
        </mxCell>
        <mxCell id="JLzmBLDIlspdBm6jVhew-6" value="" style="edgeStyle=orthogonalEdgeStyle;rounded=0;orthogonalLoop=1;jettySize=auto;html=1;" edge="1" parent="1" source="JLzmBLDIlspdBm6jVhew-2" target="JLzmBLDIlspdBm6jVhew-3">
          <mxGeometry relative="1" as="geometry" />
        </mxCell>
        <mxCell id="JLzmBLDIlspdBm6jVhew-2" value="Set foundOne to false" style="rounded=1;whiteSpace=wrap;html=1;" vertex="1" parent="1">
          <mxGeometry x="360" y="350" width="120" height="60" as="geometry" />
        </mxCell>
        <mxCell id="JLzmBLDIlspdBm6jVhew-8" value="" style="edgeStyle=orthogonalEdgeStyle;rounded=0;orthogonalLoop=1;jettySize=auto;html=1;" edge="1" parent="1" source="JLzmBLDIlspdBm6jVhew-3" target="JLzmBLDIlspdBm6jVhew-7">
          <mxGeometry relative="1" as="geometry" />
        </mxCell>
        <mxCell id="JLzmBLDIlspdBm6jVhew-31" style="edgeStyle=orthogonalEdgeStyle;rounded=0;orthogonalLoop=1;jettySize=auto;html=1;entryX=0.5;entryY=0;entryDx=0;entryDy=0;" edge="1" parent="1" source="JLzmBLDIlspdBm6jVhew-3" target="JLzmBLDIlspdBm6jVhew-30">
          <mxGeometry relative="1" as="geometry" />
        </mxCell>
        <mxCell id="JLzmBLDIlspdBm6jVhew-3" value="any available action&lt;br&gt;list?" style="rhombus;whiteSpace=wrap;html=1;" vertex="1" parent="1">
          <mxGeometry x="350" y="480" width="140" height="110" as="geometry" />
        </mxCell>
        <mxCell id="JLzmBLDIlspdBm6jVhew-12" value="" style="edgeStyle=orthogonalEdgeStyle;rounded=0;orthogonalLoop=1;jettySize=auto;html=1;" edge="1" parent="1" source="JLzmBLDIlspdBm6jVhew-7" target="JLzmBLDIlspdBm6jVhew-11">
          <mxGeometry relative="1" as="geometry" />
        </mxCell>
        <mxCell id="JLzmBLDIlspdBm6jVhew-7" value="Enter loop" style="rounded=1;whiteSpace=wrap;html=1;" vertex="1" parent="1">
          <mxGeometry x="360" y="660" width="120" height="60" as="geometry" />
        </mxCell>
        <mxCell id="JLzmBLDIlspdBm6jVhew-9" value="Yes" style="whiteSpace=wrap;html=1;" vertex="1" parent="1">
          <mxGeometry x="420" y="610" width="60" height="20" as="geometry" />
        </mxCell>
        <mxCell id="JLzmBLDIlspdBm6jVhew-17" value="" style="edgeStyle=orthogonalEdgeStyle;rounded=0;orthogonalLoop=1;jettySize=auto;html=1;" edge="1" parent="1" source="JLzmBLDIlspdBm6jVhew-11" target="JLzmBLDIlspdBm6jVhew-16">
          <mxGeometry relative="1" as="geometry" />
        </mxCell>
        <mxCell id="JLzmBLDIlspdBm6jVhew-11" value="action preconditions and parent node world state match?" style="rhombus;whiteSpace=wrap;html=1;" vertex="1" parent="1">
          <mxGeometry x="340" y="790" width="160" height="130" as="geometry" />
        </mxCell>
        <mxCell id="JLzmBLDIlspdBm6jVhew-21" value="" style="edgeStyle=orthogonalEdgeStyle;rounded=0;orthogonalLoop=1;jettySize=auto;html=1;" edge="1" parent="1" source="JLzmBLDIlspdBm6jVhew-14" target="JLzmBLDIlspdBm6jVhew-20">
          <mxGeometry relative="1" as="geometry" />
        </mxCell>
        <mxCell id="JLzmBLDIlspdBm6jVhew-14" value="Create action node&lt;br&gt;with root node = parent node, cost = parent cost + action cost, world state = new world" style="rounded=1;whiteSpace=wrap;html=1;" vertex="1" parent="1">
          <mxGeometry x="305" y="1110" width="230" height="60" as="geometry" />
        </mxCell>
        <mxCell id="JLzmBLDIlspdBm6jVhew-18" value="" style="edgeStyle=orthogonalEdgeStyle;rounded=0;orthogonalLoop=1;jettySize=auto;html=1;" edge="1" parent="1" source="JLzmBLDIlspdBm6jVhew-16" target="JLzmBLDIlspdBm6jVhew-14">
          <mxGeometry relative="1" as="geometry" />
        </mxCell>
        <mxCell id="JLzmBLDIlspdBm6jVhew-16" value="Copy parent node&#39;s world state&amp;nbsp; into new state and override it with action post effect&amp;nbsp;" style="rounded=1;whiteSpace=wrap;html=1;" vertex="1" parent="1">
          <mxGeometry x="310" y="980" width="220" height="60" as="geometry" />
        </mxCell>
        <mxCell id="JLzmBLDIlspdBm6jVhew-19" value="Yes" style="whiteSpace=wrap;html=1;" vertex="1" parent="1">
          <mxGeometry x="420" y="940" width="60" height="20" as="geometry" />
        </mxCell>
        <mxCell id="JLzmBLDIlspdBm6jVhew-23" value="" style="edgeStyle=orthogonalEdgeStyle;rounded=0;orthogonalLoop=1;jettySize=auto;html=1;" edge="1" parent="1" source="JLzmBLDIlspdBm6jVhew-20" target="JLzmBLDIlspdBm6jVhew-22">
          <mxGeometry relative="1" as="geometry" />
        </mxCell>
        <mxCell id="JLzmBLDIlspdBm6jVhew-34" value="" style="edgeStyle=orthogonalEdgeStyle;rounded=0;orthogonalLoop=1;jettySize=auto;html=1;" edge="1" parent="1" source="JLzmBLDIlspdBm6jVhew-20" target="JLzmBLDIlspdBm6jVhew-32">
          <mxGeometry relative="1" as="geometry" />
        </mxCell>
        <mxCell id="JLzmBLDIlspdBm6jVhew-20" value="new world state and goal state match?" style="rhombus;whiteSpace=wrap;html=1;" vertex="1" parent="1">
          <mxGeometry x="322.5" y="1250" width="195" height="110" as="geometry" />
        </mxCell>
        <mxCell id="JLzmBLDIlspdBm6jVhew-22" value="Add new action node to leaves list&lt;br&gt;and set foundOne to true" style="rounded=1;whiteSpace=wrap;html=1;" vertex="1" parent="1">
          <mxGeometry x="360" y="1420" width="120" height="140" as="geometry" />
        </mxCell>
        <mxCell id="JLzmBLDIlspdBm6jVhew-24" value="Yes" style="whiteSpace=wrap;html=1;" vertex="1" parent="1">
          <mxGeometry x="420" y="1380" width="60" height="20" as="geometry" />
        </mxCell>
        <mxCell id="JLzmBLDIlspdBm6jVhew-30" value="Return foundOne and End" style="ellipse;whiteSpace=wrap;html=1;" vertex="1" parent="1">
          <mxGeometry x="90" y="800" width="120" height="80" as="geometry" />
        </mxCell>
        <mxCell id="JLzmBLDIlspdBm6jVhew-38" style="edgeStyle=orthogonalEdgeStyle;rounded=0;orthogonalLoop=1;jettySize=auto;html=1;entryX=1;entryY=0.5;entryDx=0;entryDy=0;exitX=0.5;exitY=0;exitDx=0;exitDy=0;" edge="1" parent="1" source="JLzmBLDIlspdBm6jVhew-32" target="JLzmBLDIlspdBm6jVhew-2">
          <mxGeometry relative="1" as="geometry">
            <mxPoint x="610" y="270" as="targetPoint" />
            <mxPoint x="750" y="990" as="sourcePoint" />
          </mxGeometry>
        </mxCell>
        <mxCell id="JLzmBLDIlspdBm6jVhew-32" value="Remove this action from available action list" style="rounded=1;whiteSpace=wrap;html=1;" vertex="1" parent="1">
          <mxGeometry x="600" y="1275" width="120" height="60" as="geometry" />
        </mxCell>
        <mxCell id="JLzmBLDIlspdBm6jVhew-35" value="No" style="whiteSpace=wrap;html=1;" vertex="1" parent="1">
          <mxGeometry x="517.5" y="1280" width="60" height="20" as="geometry" />
        </mxCell>
      </root>
    </mxGraphModel>
  </diagram>
</mxfile>
